<svg width="34" height="34" viewBox="0 0 34 34" fill="none" xmlns="http://www.w3.org/2000/svg">
<path d="M16.4122 0.427052C16.7627 0.172408 17.2373 0.172407 17.5878 0.427051L32.5802 11.3197C32.9307 11.5743 33.0773 12.0257 32.9434 12.4377L27.2169 30.0623C27.083 30.4743 26.699 30.7533 26.2658 30.7533H7.73419C7.30097 30.7533 6.91701 30.4743 6.78314 30.0623L1.05655 12.4377C0.922679 12.0257 1.06934 11.5743 1.41982 11.3197L16.4122 0.427052Z" fill="url(#paint0_linear_197_83)"/>
<path d="M16.7061 0.832031C16.8813 0.704709 17.1187 0.70471 17.2939 0.832031L32.2861 11.7246C32.4613 11.8519 32.5347 12.0772 32.4678 12.2832L26.7412 29.9082C26.6742 30.114 26.4821 30.2529 26.2656 30.2529H7.73438C7.5179 30.2529 7.32585 30.114 7.25879 29.9082L1.53223 12.2832C1.4653 12.0772 1.5387 11.8519 1.71387 11.7246L16.7061 0.832031Z" stroke="black" stroke-opacity="0.2"/>
<path d="M20.5 13.5L24 17L20.5 20.5M13.5 20.5L10 17L13.5 13.5M18.5 11.5L15.5 22.5" stroke="white" stroke-width="1.5" stroke-linecap="round" stroke-linejoin="round"/>
<defs>
<linearGradient id="paint0_linear_197_83" x1="17" y1="0" x2="17" y2="34" gradientUnits="userSpaceOnUse">
<stop stop-color="#80BA46"/>
<stop offset="1" stop-color="#537E27"/>
</linearGradient>
</defs>
</svg>
