<svg width="34" height="34" viewBox="0 0 34 34" fill="none" xmlns="http://www.w3.org/2000/svg">
<path d="M16.6173 0.158513C16.8623 0.0570188 17.1377 0.0570187 17.3827 0.158513L28.6381 4.82067C28.8832 4.92217 29.0778 5.11684 29.1793 5.36187L33.8415 16.6173C33.943 16.8623 33.943 17.1377 33.8415 17.3827L29.1793 28.6381C29.0778 28.8832 28.8832 29.0778 28.6381 29.1793L17.3827 33.8415C17.1377 33.943 16.8623 33.943 16.6173 33.8415L5.36187 29.1793C5.11684 29.0778 4.92217 28.8832 4.82067 28.6381L0.158513 17.3827C0.0570188 17.1377 0.0570187 16.8623 0.158513 16.6173L4.82067 5.36187C4.92217 5.11684 5.11684 4.92217 5.36187 4.82067L16.6173 0.158513Z" fill="url(#paint0_linear_197_95)"/>
<path d="M16.8086 0.620117C16.9311 0.569405 17.0689 0.569405 17.1914 0.620117L28.4473 5.28223C28.5696 5.33297 28.667 5.43044 28.7178 5.55273L33.3799 16.8086C33.4306 16.9311 33.4306 17.0689 33.3799 17.1914L28.7178 28.4473C28.667 28.5696 28.5696 28.667 28.4473 28.7178L17.1914 33.3799C17.0689 33.4306 16.9311 33.4306 16.8086 33.3799L5.55273 28.7178C5.43044 28.667 5.33297 28.5696 5.28223 28.4473L0.620117 17.1914C0.569405 17.0689 0.569405 16.9311 0.620117 16.8086L5.28223 5.55273C5.33297 5.43044 5.43044 5.33297 5.55273 5.28223L16.8086 0.620117Z" stroke="black" stroke-opacity="0.2"/>
<g clip-path="url(#clip0_197_95)">
<path d="M18.6665 15.6666C18.1132 15.6666 17.6665 15.2199 17.6665 14.6666V11.3333C17.6665 10.7799 18.1132 10.3333 18.6665 10.3333C19.2198 10.3333 19.6665 10.7799 19.6665 11.3333V14.6666C19.6665 15.2199 19.2198 15.6666 18.6665 15.6666Z" stroke="white" stroke-width="1.5" stroke-linecap="round" stroke-linejoin="round"/>
<path d="M22.6665 15.6667H21.6665V14.6667C21.6665 14.1134 22.1132 13.6667 22.6665 13.6667C23.2198 13.6667 23.6665 14.1134 23.6665 14.6667C23.6665 15.2201 23.2198 15.6667 22.6665 15.6667Z" stroke="white" stroke-width="1.5" stroke-linecap="round" stroke-linejoin="round"/>
<path d="M15.3335 18.3333C15.8868 18.3333 16.3335 18.7799 16.3335 19.3333V22.6666C16.3335 23.2199 15.8868 23.6666 15.3335 23.6666C14.7802 23.6666 14.3335 23.2199 14.3335 22.6666V19.3333C14.3335 18.7799 14.7802 18.3333 15.3335 18.3333Z" stroke="white" stroke-width="1.5" stroke-linecap="round" stroke-linejoin="round"/>
<path d="M11.3335 18.3333H12.3335V19.3333C12.3335 19.8866 11.8868 20.3333 11.3335 20.3333C10.7802 20.3333 10.3335 19.8866 10.3335 19.3333C10.3335 18.7799 10.7802 18.3333 11.3335 18.3333Z" stroke="white" stroke-width="1.5" stroke-linecap="round" stroke-linejoin="round"/>
<path d="M18.3335 18.6667C18.3335 18.1134 18.7802 17.6667 19.3335 17.6667H22.6668C23.2202 17.6667 23.6668 18.1134 23.6668 18.6667C23.6668 19.2201 23.2202 19.6667 22.6668 19.6667H19.3335C18.7802 19.6667 18.3335 19.2201 18.3335 18.6667Z" stroke="white" stroke-width="1.5" stroke-linecap="round" stroke-linejoin="round"/>
<path d="M19.3335 21.6667H18.3335V22.6667C18.3335 23.2201 18.7802 23.6667 19.3335 23.6667C19.8868 23.6667 20.3335 23.2201 20.3335 22.6667C20.3335 22.1134 19.8868 21.6667 19.3335 21.6667Z" stroke="white" stroke-width="1.5" stroke-linecap="round" stroke-linejoin="round"/>
<path d="M15.6668 15.3333C15.6668 14.7799 15.2202 14.3333 14.6668 14.3333H11.3335C10.7802 14.3333 10.3335 14.7799 10.3335 15.3333C10.3335 15.8866 10.7802 16.3333 11.3335 16.3333H14.6668C15.2202 16.3333 15.6668 15.8866 15.6668 15.3333Z" stroke="white" stroke-width="1.5" stroke-linecap="round" stroke-linejoin="round"/>
<path d="M14.6665 12.3333H15.6665V11.3333C15.6665 10.7799 15.2198 10.3333 14.6665 10.3333C14.1132 10.3333 13.6665 10.7799 13.6665 11.3333C13.6665 11.8866 14.1132 12.3333 14.6665 12.3333Z" stroke="white" stroke-width="1.5" stroke-linecap="round" stroke-linejoin="round"/>
</g>
<defs>
<linearGradient id="paint0_linear_197_95" x1="17" y1="0" x2="17" y2="34" gradientUnits="userSpaceOnUse">
<stop stop-color="#FF3657"/>
<stop offset="1" stop-color="#BE324A"/>
</linearGradient>
<clipPath id="clip0_197_95">
<rect width="16" height="16" fill="white" transform="translate(9 9)"/>
</clipPath>
</defs>
</svg>
