<svg width="34" height="34" viewBox="0 0 34 34" fill="none" xmlns="http://www.w3.org/2000/svg">
<path d="M16.6173 0.158513C16.8623 0.0570188 17.1377 0.0570187 17.3827 0.158513L28.6381 4.82067C28.8832 4.92217 29.0778 5.11684 29.1793 5.36187L33.8415 16.6173C33.943 16.8623 33.943 17.1377 33.8415 17.3827L29.1793 28.6381C29.0778 28.8832 28.8832 29.0778 28.6381 29.1793L17.3827 33.8415C17.1377 33.943 16.8623 33.943 16.6173 33.8415L5.36187 29.1793C5.11684 29.0778 4.92217 28.8832 4.82067 28.6381L0.158513 17.3827C0.0570188 17.1377 0.0570187 16.8623 0.158513 16.6173L4.82067 5.36187C4.92217 5.11684 5.11684 4.92217 5.36187 4.82067L16.6173 0.158513Z" fill="url(#paint0_linear_197_93)"/>
<path d="M16.8086 0.620117C16.9311 0.569405 17.0689 0.569405 17.1914 0.620117L28.4473 5.28223C28.5696 5.33297 28.667 5.43044 28.7178 5.55273L33.3799 16.8086C33.4306 16.9311 33.4306 17.0689 33.3799 17.1914L28.7178 28.4473C28.667 28.5696 28.5696 28.667 28.4473 28.7178L17.1914 33.3799C17.0689 33.4306 16.9311 33.4306 16.8086 33.3799L5.55273 28.7178C5.43044 28.667 5.33297 28.5696 5.28223 28.4473L0.620117 17.1914C0.569405 17.0689 0.569405 16.9311 0.620117 16.8086L5.28223 5.55273C5.33297 5.43044 5.43044 5.33297 5.55273 5.28223L16.8086 0.620117Z" stroke="black" stroke-opacity="0.2"/>
<path d="M23.6668 17H10.3335" stroke="white" stroke-width="1.5" stroke-linecap="round" stroke-linejoin="round"/>
<path d="M12.6335 12.4067L10.3335 17.0001V21.0001C10.3335 21.3537 10.474 21.6928 10.724 21.9429C10.9741 22.1929 11.3132 22.3334 11.6668 22.3334H22.3335C22.6871 22.3334 23.0263 22.1929 23.2763 21.9429C23.5264 21.6928 23.6668 21.3537 23.6668 21.0001V17.0001L21.3668 12.4067C21.2564 12.1846 21.0863 11.9977 20.8755 11.8669C20.6647 11.7362 20.4216 11.6669 20.1735 11.6667H13.8268C13.5788 11.6669 13.3357 11.7362 13.1249 11.8669C12.914 11.9977 12.7439 12.1846 12.6335 12.4067Z" stroke="white" stroke-width="1.5" stroke-linecap="round" stroke-linejoin="round"/>
<path d="M13 19.6667H13.0067" stroke="white" stroke-width="1.5" stroke-linecap="round" stroke-linejoin="round"/>
<path d="M15.6665 19.6667H15.6732" stroke="white" stroke-width="1.5" stroke-linecap="round" stroke-linejoin="round"/>
<defs>
<linearGradient id="paint0_linear_197_93" x1="17" y1="0" x2="17" y2="34" gradientUnits="userSpaceOnUse">
<stop stop-color="#E344C6"/>
<stop offset="1" stop-color="#AE2D96"/>
</linearGradient>
</defs>
</svg>
