<svg width="34" height="34" viewBox="0 0 34 34" fill="none" xmlns="http://www.w3.org/2000/svg">
<path d="M16.4122 0.427052C16.7627 0.172408 17.2373 0.172407 17.5878 0.427051L32.5802 11.3197C32.9307 11.5743 33.0773 12.0257 32.9434 12.4377L27.2169 30.0623C27.083 30.4743 26.699 30.7533 26.2658 30.7533H7.73419C7.30097 30.7533 6.91701 30.4743 6.78314 30.0623L1.05655 12.4377C0.922679 12.0257 1.06934 11.5743 1.41982 11.3197L16.4122 0.427052Z" fill="url(#paint0_linear_197_81)"/>
<path d="M16.7061 0.832031C16.8813 0.704709 17.1187 0.70471 17.2939 0.832031L32.2861 11.7246C32.4613 11.8519 32.5347 12.0772 32.4678 12.2832L26.7412 29.9082C26.6742 30.114 26.4821 30.2529 26.2656 30.2529H7.73438C7.5179 30.2529 7.32585 30.114 7.25879 29.9082L1.53223 12.2832C1.4653 12.0772 1.5387 11.8519 1.71387 11.7246L16.7061 0.832031Z" stroke="black" stroke-opacity="0.2"/>
<path d="M18.7999 13.1999C18.6778 13.3245 18.6093 13.4921 18.6093 13.6666C18.6093 13.8411 18.6778 14.0086 18.7999 14.1332L19.8666 15.1999C19.9912 15.3221 20.1587 15.3905 20.3332 15.3905C20.5077 15.3905 20.6753 15.3221 20.7999 15.1999L23.3132 12.6866C23.6485 13.4274 23.75 14.2527 23.6042 15.0527C23.4585 15.8526 23.0724 16.5891 22.4974 17.1641C21.9225 17.739 21.1859 18.1251 20.386 18.2709C19.5861 18.4166 18.7607 18.3151 18.0199 17.9799L13.4132 22.5866C13.148 22.8518 12.7883 23.0008 12.4132 23.0008C12.0382 23.0008 11.6785 22.8518 11.4132 22.5866C11.148 22.3214 10.999 21.9616 10.999 21.5866C10.999 21.2115 11.148 20.8518 11.4132 20.5866L16.0199 15.9799C15.6847 15.2391 15.5832 14.4137 15.7289 13.6138C15.8747 12.8139 16.2608 12.0773 16.8357 11.5024C17.4107 10.9274 18.1472 10.5414 18.9471 10.3956C19.7471 10.2498 20.5724 10.3513 21.3132 10.6866L18.8066 13.1932L18.7999 13.1999Z" stroke="white" stroke-width="1.5" stroke-linecap="round" stroke-linejoin="round"/>
<defs>
<linearGradient id="paint0_linear_197_81" x1="17" y1="0" x2="17" y2="34" gradientUnits="userSpaceOnUse">
<stop stop-color="#FFB338"/>
<stop offset="1" stop-color="#BC8231"/>
</linearGradient>
</defs>
</svg>
