<svg width="34" height="34" viewBox="0 0 34 34" fill="none" xmlns="http://www.w3.org/2000/svg">
<path d="M16.5 0.288675C16.8094 0.110042 17.1906 0.110042 17.5 0.288675L31.2224 8.21132C31.5318 8.38996 31.7224 8.72008 31.7224 9.07735V24.9226C31.7224 25.2799 31.5318 25.61 31.2224 25.7887L17.5 33.7113C17.1906 33.89 16.8094 33.89 16.5 33.7113L2.77757 25.7887C2.46817 25.61 2.27757 25.2799 2.27757 24.9226V9.07735C2.27757 8.72008 2.46817 8.38996 2.77757 8.21132L16.5 0.288675Z" fill="url(#paint0_linear_197_85)"/>
<path d="M16.75 0.72168C16.9047 0.632366 17.0953 0.632366 17.25 0.72168L30.9727 8.64453C31.1271 8.73385 31.2226 8.89869 31.2227 9.07715V24.9229C31.2226 25.1013 31.1271 25.2662 30.9727 25.3555L17.25 33.2783C17.0953 33.3676 16.9047 33.3676 16.75 33.2783L3.02734 25.3555C2.87285 25.2662 2.77742 25.1013 2.77734 24.9229V9.07715C2.77742 8.89869 2.87285 8.73385 3.02734 8.64453L16.75 0.72168Z" stroke="black" stroke-opacity="0.2"/>
<g clip-path="url(#clip0_197_85)">
<path d="M12.875 16.0938C13.5481 16.0938 14.0938 15.5481 14.0938 14.875C14.0938 14.2019 13.5481 13.6562 12.875 13.6562C12.2019 13.6562 11.6562 14.2019 11.6562 14.875C11.6562 15.5481 12.2019 16.0938 12.875 16.0938Z" stroke="white" stroke-linecap="round" stroke-linejoin="round"/>
<path d="M15.8813 16.0938C15.8272 16.2163 15.8111 16.3522 15.835 16.484C15.8589 16.6158 15.9217 16.7374 16.0154 16.8332L16.0397 16.8575C16.1153 16.933 16.1752 17.0226 16.2161 17.1212C16.257 17.2199 16.278 17.3256 16.278 17.4324C16.278 17.5392 16.257 17.6449 16.2161 17.7435C16.1752 17.8422 16.1153 17.9318 16.0397 18.0072C15.9643 18.0828 15.8747 18.1427 15.776 18.1836C15.6774 18.2245 15.5717 18.2455 15.4649 18.2455C15.3581 18.2455 15.2524 18.2245 15.1537 18.1836C15.0551 18.1427 14.9655 18.0828 14.89 18.0072L14.8657 17.9829C14.7699 17.8892 14.6483 17.8264 14.5165 17.8025C14.3847 17.7786 14.2488 17.7947 14.1263 17.8488C14.0061 17.9003 13.9037 17.9858 13.8315 18.0948C13.7593 18.2038 13.7206 18.3315 13.72 18.4622V18.5313C13.72 18.7468 13.6344 18.9535 13.4821 19.1058C13.3297 19.2582 13.123 19.3438 12.9075 19.3438C12.692 19.3438 12.4854 19.2582 12.333 19.1058C12.1806 18.9535 12.095 18.7468 12.095 18.5313V18.4947C12.0919 18.3603 12.0484 18.2299 11.9701 18.1205C11.8919 18.0111 11.7825 17.9277 11.6563 17.8813C11.5337 17.8272 11.3978 17.8111 11.266 17.835C11.1342 17.8589 11.0126 17.9217 10.9169 18.0154L10.8925 18.0397C10.8171 18.1153 10.7274 18.1752 10.6288 18.2161C10.5302 18.257 10.4244 18.278 10.3177 18.278C10.2109 18.278 10.1052 18.257 10.0065 18.2161C9.90789 18.1752 9.81828 18.1153 9.74282 18.0397C9.66728 17.9643 9.60735 17.8747 9.56646 17.776C9.52557 17.6774 9.50452 17.5717 9.50452 17.4649C9.50452 17.3581 9.52557 17.2524 9.56646 17.1537C9.60735 17.0551 9.66728 16.9655 9.74282 16.89L9.7672 16.8657C9.86085 16.7699 9.92368 16.6483 9.94757 16.5165C9.97147 16.3847 9.95534 16.2488 9.90126 16.1263C9.84976 16.0061 9.76425 15.9037 9.65526 15.8315C9.54627 15.7593 9.41854 15.7206 9.28782 15.72H9.21876C9.00327 15.72 8.7966 15.6344 8.64423 15.4821C8.49185 15.3297 8.40625 15.123 8.40625 14.9075C8.40625 14.692 8.49185 14.4854 8.64423 14.333C8.7966 14.1806 9.00327 14.095 9.21876 14.095H9.25532C9.38979 14.0919 9.5202 14.0484 9.6296 13.9701C9.739 13.8919 9.82233 13.7825 9.86876 13.6563C9.92284 13.5337 9.93897 13.3978 9.91507 13.266C9.89118 13.1342 9.82835 13.0126 9.7347 12.9169L9.71032 12.8925C9.63478 12.8171 9.57485 12.7274 9.53396 12.6288C9.49307 12.5302 9.47202 12.4244 9.47202 12.3177C9.47202 12.2109 9.49307 12.1052 9.53396 12.0065C9.57485 11.9079 9.63478 11.8183 9.71032 11.7428C9.78578 11.6673 9.87539 11.6073 9.97403 11.5665C10.0727 11.5256 10.1784 11.5045 10.2852 11.5045C10.3919 11.5045 10.4977 11.5256 10.5963 11.5665C10.6949 11.6073 10.7846 11.6673 10.86 11.7428L10.8844 11.7672C10.9801 11.8609 11.1017 11.9237 11.2335 11.9476C11.3653 11.9715 11.5012 11.9553 11.6238 11.9013H11.6563C11.7764 11.8498 11.8789 11.7643 11.9511 11.6553C12.0233 11.5463 12.062 11.4185 12.0625 11.2878V11.2188C12.0625 11.0033 12.1481 10.7966 12.3005 10.6442C12.4529 10.4919 12.6595 10.4062 12.875 10.4062C13.0905 10.4062 13.2972 10.4919 13.4496 10.6442C13.6019 10.7966 13.6875 11.0033 13.6875 11.2188V11.2553C13.6881 11.386 13.7268 11.5138 13.799 11.6228C13.8712 11.7318 13.9736 11.8173 14.0938 11.8688C14.2163 11.9228 14.3522 11.939 14.484 11.9151C14.6158 11.8912 14.7374 11.8284 14.8332 11.7347L14.8575 11.7103C14.933 11.6348 15.0226 11.5748 15.1212 11.534C15.2199 11.4931 15.3256 11.472 15.4324 11.472C15.5392 11.472 15.6449 11.4931 15.7435 11.534C15.8422 11.5748 15.9318 11.6348 16.0072 11.7103C16.0828 11.7858 16.1427 11.8754 16.1836 11.974C16.2245 12.0727 16.2455 12.1784 16.2455 12.2852C16.2455 12.3919 16.2245 12.4977 16.1836 12.5963C16.1427 12.6949 16.0828 12.7846 16.0072 12.86L15.9829 12.8844C15.8892 12.9801 15.8264 13.1017 15.8025 13.2335C15.7786 13.3653 15.7947 13.5012 15.8488 13.6238V13.6563C15.9003 13.7764 15.9858 13.8789 16.0948 13.9511C16.2038 14.0233 16.3315 14.062 16.4622 14.0625H16.5313C16.7468 14.0625 16.9535 14.1481 17.1058 14.3005C17.2582 14.4529 17.3438 14.6595 17.3438 14.875C17.3438 15.0905 17.2582 15.2972 17.1058 15.4496C16.9535 15.6019 16.7468 15.6875 16.5313 15.6875H16.4947C16.364 15.6881 16.2363 15.7268 16.1273 15.799C16.0183 15.8712 15.9328 15.9736 15.8813 16.0938Z" stroke="white" stroke-linecap="round" stroke-linejoin="round"/>
</g>
<g clip-path="url(#clip1_197_85)">
<path d="M20.375 20.7813C21.1517 20.7813 21.7813 20.1517 21.7813 19.375C21.7813 18.5984 21.1517 17.9688 20.375 17.9688C19.5984 17.9688 18.9688 18.5984 18.9688 19.375C18.9688 20.1517 19.5984 20.7813 20.375 20.7813Z" stroke="white" stroke-linecap="round" stroke-linejoin="round"/>
<path d="M23.8438 20.7813C23.7814 20.9227 23.7628 21.0795 23.7904 21.2316C23.8179 21.3836 23.8904 21.5239 23.9985 21.6344L24.0266 21.6625C24.1138 21.7496 24.1829 21.853 24.2301 21.9668C24.2773 22.0806 24.3016 22.2026 24.3016 22.3258C24.3016 22.449 24.2773 22.571 24.2301 22.6848C24.1829 22.7986 24.1138 22.902 24.0266 22.9891C23.9395 23.0763 23.8362 23.1454 23.7223 23.1926C23.6085 23.2398 23.4865 23.2641 23.3633 23.2641C23.2401 23.2641 23.1181 23.2398 23.0043 23.1926C22.8905 23.1454 22.7871 23.0763 22.7 22.9891L22.6719 22.961C22.5614 22.8529 22.4211 22.7804 22.2691 22.7529C22.117 22.7253 21.9602 22.7439 21.8188 22.8063C21.6801 22.8657 21.5619 22.9644 21.4786 23.0901C21.3953 23.2159 21.3506 23.3633 21.35 23.5141V23.5938C21.35 23.8424 21.2513 24.0809 21.0754 24.2567C20.8996 24.4325 20.6612 24.5313 20.4125 24.5313C20.1639 24.5313 19.9254 24.4325 19.7496 24.2567C19.5738 24.0809 19.475 23.8424 19.475 23.5938V23.5516C19.4714 23.3965 19.4212 23.246 19.3309 23.1198C19.2406 22.9935 19.1144 22.8974 18.9688 22.8438C18.8274 22.7814 18.6706 22.7628 18.5185 22.7904C18.3664 22.8179 18.2261 22.8904 18.1156 22.9985L18.0875 23.0266C18.0004 23.1138 17.8971 23.1829 17.7832 23.2301C17.6694 23.2773 17.5474 23.3016 17.4242 23.3016C17.301 23.3016 17.179 23.2773 17.0652 23.2301C16.9514 23.1829 16.848 23.1138 16.7609 23.0266C16.6738 22.9395 16.6046 22.8361 16.5575 22.7223C16.5103 22.6085 16.486 22.4865 16.486 22.3633C16.486 22.2401 16.5103 22.1181 16.5575 22.0043C16.6046 21.8905 16.6738 21.7871 16.7609 21.7L16.7891 21.6719C16.8971 21.5614 16.9696 21.4211 16.9972 21.2691C17.0248 21.117 17.0062 20.9602 16.9438 20.8188C16.8843 20.6801 16.7857 20.5619 16.6599 20.4786C16.5342 20.3953 16.3868 20.3506 16.2359 20.35H16.1563C15.9076 20.35 15.6692 20.2513 15.4933 20.0754C15.3175 19.8996 15.2188 19.6612 15.2188 19.4125C15.2188 19.1639 15.3175 18.9254 15.4933 18.7496C15.6692 18.5738 15.9076 18.475 16.1563 18.475H16.1984C16.3536 18.4714 16.5041 18.4212 16.6303 18.3309C16.7565 18.2406 16.8527 18.1144 16.9063 17.9688C16.9687 17.8274 16.9873 17.6706 16.9597 17.5185C16.9321 17.3664 16.8596 17.2261 16.7516 17.1156L16.7234 17.0875C16.6363 17.0004 16.5671 16.8971 16.52 16.7832C16.4728 16.6694 16.4485 16.5474 16.4485 16.4242C16.4485 16.301 16.4728 16.179 16.52 16.0652C16.5671 15.9514 16.6363 15.848 16.7234 15.7609C16.8105 15.6738 16.9139 15.6046 17.0277 15.5575C17.1415 15.5103 17.2635 15.486 17.3867 15.486C17.5099 15.486 17.6319 15.5103 17.7457 15.5575C17.8596 15.6046 17.9629 15.6738 18.05 15.7609L18.0781 15.7891C18.1886 15.8971 18.3289 15.9696 18.481 15.9972C18.6331 16.0248 18.7899 16.0062 18.9313 15.9438H18.9688C19.1074 15.8843 19.2257 15.7857 19.3089 15.6599C19.3922 15.5342 19.4369 15.3868 19.4375 15.2359V15.1563C19.4375 14.9076 19.5363 14.6692 19.7121 14.4933C19.8879 14.3175 20.1264 14.2188 20.375 14.2188C20.6237 14.2188 20.8621 14.3175 21.0379 14.4933C21.2138 14.6692 21.3125 14.9076 21.3125 15.1563V15.1984C21.3131 15.3493 21.3578 15.4967 21.4411 15.6224C21.5244 15.7482 21.6426 15.8468 21.7813 15.9063C21.9227 15.9687 22.0795 15.9873 22.2316 15.9597C22.3836 15.9321 22.5239 15.8596 22.6344 15.7516L22.6625 15.7234C22.7496 15.6363 22.853 15.5671 22.9668 15.52C23.0806 15.4728 23.2026 15.4485 23.3258 15.4485C23.449 15.4485 23.571 15.4728 23.6848 15.52C23.7987 15.5671 23.902 15.6363 23.9891 15.7234C24.0763 15.8105 24.1454 15.9139 24.1926 16.0277C24.2398 16.1415 24.2641 16.2635 24.2641 16.3867C24.2641 16.5099 24.2398 16.6319 24.1926 16.7457C24.1454 16.8596 24.0763 16.9629 23.9891 17.05L23.961 17.0781C23.8529 17.1886 23.7804 17.3289 23.7529 17.481C23.7253 17.6331 23.7439 17.7899 23.8063 17.9313V17.9688C23.8657 18.1074 23.9644 18.2257 24.0901 18.3089C24.2159 18.3922 24.3633 18.4369 24.5141 18.4375H24.5938C24.8424 18.4375 25.0809 18.5363 25.2567 18.7121C25.4325 18.8879 25.5313 19.1264 25.5313 19.375C25.5313 19.6237 25.4325 19.8621 25.2567 20.0379C25.0809 20.2138 24.8424 20.3125 24.5938 20.3125H24.5516C24.4008 20.3131 24.2534 20.3578 24.1276 20.4411C24.0019 20.5244 23.9032 20.6426 23.8438 20.7813Z" stroke="white" stroke-linecap="round" stroke-linejoin="round"/>
</g>
<defs>
<linearGradient id="paint0_linear_197_85" x1="17" y1="0" x2="17" y2="34" gradientUnits="userSpaceOnUse">
<stop stop-color="#54C86D"/>
<stop offset="1" stop-color="#377D46"/>
</linearGradient>
<clipPath id="clip0_197_85">
<rect width="9.75006" height="9.75006" fill="white" transform="translate(8 10)"/>
</clipPath>
<clipPath id="clip1_197_85">
<rect width="11.2501" height="11.2501" fill="white" transform="translate(14.75 13.75)"/>
</clipPath>
</defs>
</svg>
