<svg width="34" height="34" viewBox="0 0 34 34" fill="none" xmlns="http://www.w3.org/2000/svg">
<path d="M16.5 0.288675C16.8094 0.110042 17.1906 0.110042 17.5 0.288675L31.2224 8.21132C31.5318 8.38996 31.7224 8.72008 31.7224 9.07735V24.9226C31.7224 25.2799 31.5318 25.61 31.2224 25.7887L17.5 33.7113C17.1906 33.89 16.8094 33.89 16.5 33.7113L2.77757 25.7887C2.46817 25.61 2.27757 25.2799 2.27757 24.9226V9.07735C2.27757 8.72008 2.46817 8.38996 2.77757 8.21132L16.5 0.288675Z" fill="url(#paint0_linear_197_87)"/>
<path d="M16.75 0.72168C16.9047 0.632366 17.0953 0.632366 17.25 0.72168L30.9727 8.64453C31.1271 8.73385 31.2226 8.89869 31.2227 9.07715V24.9229C31.2226 25.1013 31.1271 25.2662 30.9727 25.3555L17.25 33.2783C17.0953 33.3676 16.9047 33.3676 16.75 33.2783L3.02734 25.3555C2.87285 25.2662 2.77742 25.1013 2.77734 24.9229V9.07715C2.77742 8.89869 2.87285 8.73385 3.02734 8.64453L16.75 0.72168Z" stroke="black" stroke-opacity="0.2"/>
<path d="M23.6668 17H21.0002L19.0002 23L15.0002 11L13.0002 17H10.3335" stroke="white" stroke-width="1.5" stroke-linecap="round" stroke-linejoin="round"/>
<defs>
<linearGradient id="paint0_linear_197_87" x1="17" y1="0" x2="17" y2="34" gradientUnits="userSpaceOnUse">
<stop stop-color="#50CFCF"/>
<stop offset="1" stop-color="#468E8E"/>
</linearGradient>
</defs>
</svg>
