<svg width="34" height="34" viewBox="0 0 34 34" fill="none" xmlns="http://www.w3.org/2000/svg">
<path d="M16.5661 0.208948C16.8403 0.0769061 17.1597 0.0769059 17.4339 0.208947L29.8573 6.19173C30.1314 6.32377 30.3306 6.57348 30.3983 6.87017L33.4666 20.3134C33.5343 20.61 33.4633 20.9214 33.2735 21.1594L24.6763 31.94C24.4865 32.1779 24.1988 32.3165 23.8944 32.3165H10.1056C9.80123 32.3165 9.51346 32.1779 9.32372 31.94L0.726483 21.1594C0.53674 20.9214 0.465667 20.6101 0.533386 20.3134L3.6017 6.87017C3.66942 6.57348 3.86856 6.32377 4.14275 6.19173L16.5661 0.208948Z" fill="url(#paint0_linear_197_89)"/>
<path d="M16.7832 0.65918C16.9202 0.593298 17.0798 0.593298 17.2168 0.65918L29.6406 6.64258C29.7775 6.70865 29.8773 6.83324 29.9111 6.98145L32.9795 20.4248C33.0132 20.573 32.9776 20.7288 32.8828 20.8477L24.2852 31.6279C24.1903 31.7469 24.0467 31.8164 23.8945 31.8164H10.1055C9.95334 31.8164 9.8097 31.7469 9.71484 31.6279L1.11719 20.8477C1.02242 20.7288 0.986755 20.573 1.02051 20.4248L4.08887 6.98145C4.12269 6.83324 4.22249 6.70865 4.35938 6.64258L16.7832 0.65918Z" stroke="black" stroke-opacity="0.2"/>
<g clip-path="url(#clip0_197_89)">
<path d="M20.3332 23V21.6667C20.3332 20.9594 20.0522 20.2811 19.5521 19.781C19.052 19.281 18.3737 19 17.6665 19H12.3332C11.6259 19 10.9476 19.281 10.4476 19.781C9.94746 20.2811 9.6665 20.9594 9.6665 21.6667V23" stroke="white" stroke-width="1.5" stroke-linecap="round" stroke-linejoin="round"/>
<path d="M15.0002 16.3333C16.4729 16.3333 17.6668 15.1394 17.6668 13.6667C17.6668 12.1939 16.4729 11 15.0002 11C13.5274 11 12.3335 12.1939 12.3335 13.6667C12.3335 15.1394 13.5274 16.3333 15.0002 16.3333Z" stroke="white" stroke-width="1.5" stroke-linecap="round" stroke-linejoin="round"/>
<path d="M24.3335 23V21.6667C24.3331 21.0758 24.1364 20.5019 23.7744 20.0349C23.4124 19.5679 22.9056 19.2344 22.3335 19.0867" stroke="white" stroke-width="1.5" stroke-linecap="round" stroke-linejoin="round"/>
<path d="M19.6665 11.0867C20.2401 11.2335 20.7485 11.5671 21.1116 12.0349C21.4747 12.5026 21.6717 13.0779 21.6717 13.67C21.6717 14.2621 21.4747 14.8374 21.1116 15.3051C20.7485 15.7729 20.2401 16.1065 19.6665 16.2533" stroke="white" stroke-width="1.5" stroke-linecap="round" stroke-linejoin="round"/>
</g>
<defs>
<linearGradient id="paint0_linear_197_89" x1="17" y1="0" x2="17" y2="34" gradientUnits="userSpaceOnUse">
<stop stop-color="#5D93E5"/>
<stop offset="1" stop-color="#4B6C9D"/>
</linearGradient>
<clipPath id="clip0_197_89">
<rect width="16" height="16" fill="white" transform="translate(9 9)"/>
</clipPath>
</defs>
</svg>
