<svg width="34" height="34" viewBox="0 0 34 34" fill="none" xmlns="http://www.w3.org/2000/svg">
<path d="M16.2929 0.707107C16.6834 0.316582 17.3166 0.316583 17.7071 0.707107L33.2929 16.2929C33.6834 16.6834 33.6834 17.3166 33.2929 17.7071L17.7071 33.2929C17.3166 33.6834 16.6834 33.6834 16.2929 33.2929L0.707107 17.7071C0.316582 17.3166 0.316583 16.6834 0.707107 16.2929L16.2929 0.707107Z" fill="url(#paint0_linear_197_79)"/>
<path d="M16.6465 1.06055C16.8417 0.865385 17.1583 0.865385 17.3535 1.06055L32.9395 16.6465C33.1346 16.8417 33.1346 17.1583 32.9395 17.3535L17.3535 32.9395C17.1583 33.1346 16.8417 33.1346 16.6465 32.9395L1.06055 17.3535C0.865385 17.1583 0.865385 16.8417 1.06055 16.6465L16.6465 1.06055Z" stroke="black" stroke-opacity="0.2"/>
<path d="M11.6665 21.9999C11.6665 21.5579 11.8421 21.134 12.1547 20.8214C12.4672 20.5088 12.8911 20.3333 13.3332 20.3333H22.3332" stroke="white" stroke-width="1.5" stroke-linecap="round" stroke-linejoin="round"/>
<path d="M13.3332 10.3333H22.3332V23.6666H13.3332C12.8911 23.6666 12.4672 23.491 12.1547 23.1784C11.8421 22.8659 11.6665 22.4419 11.6665 21.9999V11.9999C11.6665 11.5579 11.8421 11.134 12.1547 10.8214C12.4672 10.5088 12.8911 10.3333 13.3332 10.3333Z" stroke="white" stroke-width="1.5" stroke-linecap="round" stroke-linejoin="round"/>
<defs>
<linearGradient id="paint0_linear_197_79" x1="17" y1="0" x2="17" y2="34" gradientUnits="userSpaceOnUse">
<stop stop-color="#FF6D48"/>
<stop offset="1" stop-color="#B85137"/>
</linearGradient>
</defs>
</svg>
